<svg width="217px" height="20px" viewBox="0 0 217 20" version="1.1" xmlns="http://www.w3.org/2000/svg" xmlns:xlink="http://www.w3.org/1999/xlink">
    <desc>UokoExchange Logo</desc>
    <g id="Page-1" stroke="none" stroke-width="1" fill="none" fill-rule="evenodd">
        <g id="UokoExchange">
            <path d="M8.802,19.338 C3.628,19.338 0.378,16.712 0.378,11.018 L0.378,0.8 L5.5,0.8 L5.5,10.914 C5.5,13.54 6.826,14.788 8.854,14.788 C10.882,14.788 12.208,13.592 12.208,11.044 L12.208,0.8 L17.33,0.8 L17.33,10.888 C17.33,16.764 13.976,19.338 8.802,19.338 Z" id="Path" fill="#005018"></path>
            <path d="M28.063666,19.364 C22.447666,19.364 18.287666,15.178 18.287666,9.952 L18.287666,9.9 C18.287666,4.674 22.499666,0.436 28.115666,0.436 C33.731666,0.436 37.891666,4.622 37.891666,9.848 L37.891666,9.9 C37.891666,15.126 33.679666,19.364 28.063666,19.364 Z M28.115666,14.814 C30.897666,14.814 32.743666,12.578 32.743666,9.952 L32.743666,9.9 C32.743666,7.274 30.845666,4.986 28.063666,4.986 C25.307666,4.986 23.461666,7.222 23.461666,9.848 L23.461666,9.9 C23.461666,12.526 25.359666,14.814 28.115666,14.814 Z" id="Combined-Shape" fill="#005018"></path>
            <polygon id="Path" fill="#005018" points="39.109332 19 39.109332 0.8 44.153332 0.8 44.153332 8.184 50.419332 0.8 56.399332 0.8 49.509332 8.626 56.633332 19 50.575332 19 45.999332 12.24 44.153332 14.294 44.153332 19"></polygon>
            <path d="M64.402998,19.364 C58.786998,19.364 54.626998,15.178 54.626998,9.952 L54.626998,9.9 C54.626998,4.674 58.838998,0.436 64.454998,0.436 C70.070998,0.436 74.230998,4.622 74.230998,9.848 L74.230998,9.9 C74.230998,15.126 70.018998,19.364 64.402998,19.364 Z M64.454998,14.814 C67.236998,14.814 69.082998,12.578 69.082998,9.952 L69.082998,9.9 C69.082998,7.274 67.184998,4.986 64.402998,4.986 C61.646998,4.986 59.800998,7.222 59.800998,9.848 L59.800998,9.9 C59.800998,12.526 61.698998,14.814 64.454998,14.814 Z" id="Combined-Shape" fill="#005018"></path>
            <polygon id="Path" fill="#FFFFFF" points="76.176664 0.8 89.670664 0.8 89.670664 3.66 79.374664 3.66 79.374664 8.392 88.500664 8.392 88.500664 11.252 79.374664 11.252 79.374664 16.14 89.800664 16.14 89.800664 19 76.176664 19"></polygon>
            <polygon id="Path" fill="#FFFFFF" points="97.44033 9.744 91.07033 0.8 94.84033 0.8 99.36433 7.326 103.91433 0.8 107.58033 0.8 101.23633 9.692 107.84033 19 104.07033 19 99.28633 12.11 94.47633 19 90.81033 19"></polygon>
            <path d="M118.183996,19.312 C116.849323,19.312 115.618668,19.0693358 114.491996,18.584 C113.365324,18.0986642 112.390333,17.4356709 111.566996,16.595 C110.743659,15.7543291 110.097998,14.7620057 109.629996,13.618 C109.161994,12.4739943 108.927996,11.2520065 108.927996,9.952 L108.927996,9.9 C108.927996,8.5999935 109.15766,7.38233901 109.616996,6.247 C110.076332,5.11166099 110.721992,4.11500429 111.553996,3.257 C112.386,2.39899571 113.37399,1.72300247 114.517996,1.229 C115.662002,0.73499753 116.927322,0.488 118.313996,0.488 C119.146,0.488 119.904326,0.55733264 120.588996,0.696 C121.273666,0.83466736 121.901993,1.02966541 122.473996,1.281 C123.045999,1.53233459 123.57466,1.8313316 124.059996,2.178 C124.545332,2.5246684 125.00466,2.90599792 125.437996,3.322 L123.383996,5.688 C122.655992,5.01199662 121.884667,4.46600208 121.069996,4.05 C120.255325,3.63399792 119.328001,3.426 118.287996,3.426 C117.421325,3.426 116.619666,3.59499831 115.882996,3.933 C115.146326,4.27100169 114.509332,4.73033043 113.971996,5.311 C113.43466,5.89166957 113.018664,6.5719961 112.723996,7.352 C112.429328,8.1320039 112.281996,8.96399558 112.281996,9.848 L112.281996,9.9 C112.281996,10.7840044 112.429328,11.6203294 112.723996,12.409 C113.018664,13.1976706 113.43466,13.8866637 113.971996,14.476 C114.509332,15.0653363 115.146326,15.5289983 115.882996,15.867 C116.619666,16.2050017 117.421325,16.374 118.287996,16.374 C119.397335,16.374 120.350659,16.1616688 121.147996,15.737 C121.945333,15.3123312 122.733992,14.7360036 123.513996,14.008 L125.567996,16.088 C125.099994,16.5906692 124.610332,17.036998 124.098996,17.427 C123.58766,17.8170019 123.037332,18.1549986 122.447996,18.441 C121.85866,18.7270014 121.213,18.9436659 120.510996,19.091 C119.808992,19.2383341 119.033334,19.312 118.183996,19.312 Z" id="Path" fill="#FFFFFF"></path>
            <polygon id="Path" fill="#FFFFFF" points="127.513662 0.8 130.711662 0.8 130.711662 8.366 139.395662 8.366 139.395662 0.8 142.593662 0.8 142.593662 19 139.395662 19 139.395662 11.33 130.711662 11.33 130.711662 19 127.513662 19"></polygon>
            <path d="M152.313328,0.67 L155.277328,0.67 L163.285328,19 L159.905328,19 L158.059328,14.606 L149.453328,14.606 L147.581328,19 L144.305328,19 L152.313328,0.67 Z M156.889328,11.772 L153.743328,4.492 L150.623328,11.772 L156.889328,11.772 Z" id="Combined-Shape" fill="#FFFFFF"></path>
            <polygon id="Path" fill="#FFFFFF" points="164.996994 0.8 167.960994 0.8 177.710994 13.384 177.710994 0.8 180.856994 0.8 180.856994 19 178.178994 19 168.142994 6.052 168.142994 19 164.996994 19"></polygon>
            <path d="M192.76066,19.312 C191.33932,19.312 190.047999,19.0736691 188.88666,18.597 C187.725321,18.120331 186.732997,17.4616709 185.90966,16.621 C185.086323,15.7803291 184.449329,14.792339 183.99866,13.657 C183.547991,12.521661 183.32266,11.2866733 183.32266,9.952 L183.32266,9.9 C183.32266,8.63466034 183.552324,7.43000572 184.01166,6.286 C184.470996,5.14199428 185.116656,4.14100429 185.94866,3.283 C186.780664,2.42499571 187.772988,1.74466918 188.92566,1.242 C190.078332,0.73933082 191.33932,0.488 192.70866,0.488 C193.505997,0.488 194.229657,0.54433277 194.87966,0.657 C195.529663,0.76966723 196.131991,0.92999896 196.68666,1.138 C197.241329,1.34600104 197.765658,1.60166515 198.25966,1.905 C198.753662,2.20833485 199.234658,2.55933134 199.70266,2.958 L197.67466,5.376 C197.327992,5.08133186 196.972662,4.81266788 196.60866,4.57 C196.244658,4.32733212 195.863329,4.12366749 195.46466,3.959 C195.065991,3.79433251 194.628329,3.66433381 194.15166,3.569 C193.674991,3.47366619 193.150663,3.426 192.57866,3.426 C191.746656,3.426 190.970997,3.5993316 190.25166,3.946 C189.532323,4.2926684 188.908329,4.75633043 188.37966,5.337 C187.850991,5.91766957 187.434995,6.5979961 187.13166,7.378 C186.828325,8.1580039 186.67666,8.981329 186.67666,9.848 L186.67666,9.9 C186.67666,10.8360047 186.823992,11.7026627 187.11866,12.5 C187.413328,13.2973373 187.833657,13.9819971 188.37966,14.554 C188.925663,15.1260029 189.575656,15.576665 190.32966,15.906 C191.083664,16.235335 191.928655,16.4 192.86466,16.4 C193.731331,16.4 194.541656,16.2743346 195.29566,16.023 C196.049664,15.7716654 196.703991,15.4380021 197.25866,15.022 L197.25866,11.616 L192.60466,11.616 L192.60466,8.834 L200.35266,8.834 L200.35266,16.478 C199.901991,16.8593352 199.403663,17.2233316 198.85766,17.57 C198.311657,17.9166684 197.72233,18.2199987 197.08966,18.48 C196.45699,18.7400013 195.776664,18.9436659 195.04866,19.091 C194.320656,19.2383341 193.557997,19.312 192.76066,19.312 Z" id="Path" fill="#FFFFFF"></path>
            <polygon id="Path" fill="#FFFFFF" points="203.104326 0.8 216.598326 0.8 216.598326 3.66 206.302326 3.66 206.302326 8.392 215.428326 8.392 215.428326 11.252 206.302326 11.252 206.302326 16.14 216.728326 16.14 216.728326 19 203.104326 19"></polygon>
        </g>
    </g>
</svg>